<svg width="64" height="65" viewBox="0 0 64 65" fill="none" xmlns="http://www.w3.org/2000/svg">
<path d="M32 0.862793C14.52 0.862793 0.333328 15.0495 0.333328 32.5295C0.333328 50.0095 14.52 64.1961 32 64.1961C49.48 64.1961 63.6667 50.0095 63.6667 32.5295C63.6667 15.0495 49.48 0.862793 32 0.862793ZM44.7617 34.2078L35.2617 43.7078C34.7867 44.1828 34.185 44.4045 33.5833 44.4045C32.9817 44.4045 32.38 44.1828 31.905 43.7078C30.9867 42.7895 30.9867 41.2695 31.905 40.3511L37.3517 34.9045H20.9167C19.6183 34.9045 18.5417 33.8278 18.5417 32.5295C18.5417 31.2311 19.6183 30.1545 20.9167 30.1545H37.3517L31.905 24.7078C30.9867 23.7895 30.9867 22.2695 31.905 21.3511C32.8233 20.4328 34.3433 20.4328 35.2617 21.3511L44.7617 30.8511C45.68 31.7695 45.68 33.2895 44.7617 34.2078Z" fill="white"/>
</svg>
