<svg width="18" height="18" viewBox="0 0 18 18" fill="none" xmlns="http://www.w3.org/2000/svg">
<path d="M16.375 15.625V14.1848C16.375 13.4692 15.9393 12.8257 15.2749 12.56L13.4951 11.848C12.65 11.51 11.6869 11.8762 11.2799 12.6902L11.125 13C11.125 13 8.9375 12.5625 7.1875 10.8125C5.4375 9.0625 5 6.875 5 6.875L5.30976 6.72012C6.12383 6.31308 6.49 5.34999 6.15197 4.50494L5.44003 2.72507C5.17427 2.06066 4.53078 1.625 3.81519 1.625H2.375C1.4085 1.625 0.625 2.4085 0.625 3.375C0.625 11.107 6.89301 17.375 14.625 17.375C15.5915 17.375 16.375 16.5915 16.375 15.625Z" fill="white"/>
<path fill-rule="evenodd" clip-rule="evenodd" d="M8.71875 5.125C8.71875 4.76256 9.01256 4.46875 9.375 4.46875C9.92081 4.46875 10.4613 4.57625 10.9655 4.78513C11.4698 4.994 11.928 5.30014 12.3139 5.68609C12.6999 6.07203 13.006 6.53021 13.2149 7.03447C13.4237 7.53873 13.5312 8.07919 13.5312 8.625C13.5312 8.98744 13.2374 9.28125 12.875 9.28125C12.5126 9.28125 12.2188 8.98744 12.2188 8.625C12.2188 8.25155 12.1452 7.88176 12.0023 7.53674C11.8594 7.19172 11.6499 6.87823 11.3858 6.61416C11.1218 6.3501 10.8083 6.14063 10.4633 5.99772C10.1182 5.85481 9.74845 5.78125 9.375 5.78125C9.01256 5.78125 8.71875 5.48744 8.71875 5.125Z" fill="white"/>
<path fill-rule="evenodd" clip-rule="evenodd" d="M8.71875 1.625C8.71875 1.26256 9.01256 0.96875 9.375 0.96875C10.3804 0.96875 11.376 1.16678 12.3049 1.55155C13.2338 1.93631 14.0778 2.50027 14.7888 3.21121C15.4997 3.92216 16.0637 4.76618 16.4485 5.69508C16.8332 6.62398 17.0312 7.61957 17.0312 8.625C17.0312 8.98744 16.7374 9.28125 16.375 9.28125C16.0126 9.28125 15.7188 8.98744 15.7188 8.625C15.7188 7.79193 15.5547 6.96701 15.2359 6.19735C14.9171 5.42769 14.4498 4.72836 13.8607 4.13929C13.2716 3.55022 12.5723 3.08294 11.8026 2.76414C11.033 2.44534 10.2081 2.28125 9.375 2.28125C9.01256 2.28125 8.71875 1.98744 8.71875 1.625Z" fill="white"/>
</svg>
