<svg width="19" height="17" viewBox="0 0 19 17" fill="none" xmlns="http://www.w3.org/2000/svg">
<path d="M0.75 4.125C0.75 2.192 2.317 0.625 4.25 0.625H14.75C16.683 0.625 18.25 2.192 18.25 4.125V12.875C18.25 14.808 16.683 16.375 14.75 16.375H4.25C2.317 16.375 0.75 14.808 0.75 12.875V4.125Z" fill="white"/>
<path fill-rule="evenodd" clip-rule="evenodd" d="M3.70404 4.63605C3.90508 4.33448 4.31253 4.25299 4.61409 4.45404L7.92264 6.65974C8.87786 7.29655 10.1223 7.29655 11.0775 6.65974L14.386 4.45404C14.6876 4.25299 15.0951 4.33448 15.2961 4.63605C15.4971 4.93761 15.4157 5.34506 15.1141 5.5461L11.8055 7.7518C10.4095 8.68252 8.59068 8.68252 7.1946 7.7518L3.88605 5.5461C3.58448 5.34506 3.50299 4.93761 3.70404 4.63605Z" fill="#3AACF2"/>
</svg>
