<svg width="15" height="17" viewBox="0 0 15 17" fill="none" xmlns="http://www.w3.org/2000/svg">
<path fill-rule="evenodd" clip-rule="evenodd" d="M7.5 12.875C9.25 12.875 12.75 8.7745 12.75 5.875C12.75 2.97551 10.3995 0.625 7.5 0.625C4.60051 0.625 2.25 2.97551 2.25 5.875C2.25 8.7745 5.75 12.875 7.5 12.875ZM7.5 7.625C8.4665 7.625 9.25 6.8415 9.25 5.875C9.25 4.9085 8.4665 4.125 7.5 4.125C6.5335 4.125 5.75 4.9085 5.75 5.875C5.75 6.8415 6.5335 7.625 7.5 7.625Z" fill="white"/>
<path fill-rule="evenodd" clip-rule="evenodd" d="M3.16233 11.2422C2.34363 11.4449 1.60114 11.9037 1.05062 12.5643L0.608646 13.0946C-0.476899 14.3973 0.449413 16.375 2.14509 16.375H12.8549C14.5506 16.375 15.4769 14.3973 14.3914 13.0946L13.9494 12.5643C13.3989 11.9037 12.6564 11.4449 11.8377 11.2422C11.8291 11.2531 11.8206 11.264 11.812 11.2748C11.2102 12.0383 10.5291 12.7279 9.845 13.2398C9.21258 13.7131 8.37692 14.1875 7.5 14.1875C6.62309 14.1875 5.78743 13.7131 5.15501 13.2398C4.4709 12.7279 3.78978 12.0383 3.18798 11.2748C3.17943 11.264 3.17088 11.2531 3.16233 11.2422Z" fill="white"/>
</svg>
